
<svg width="600" height="400" viewBox="0 0 600 400" fill="none" xmlns="http://www.w3.org/2000/svg">
  <rect width="600" height="400" rx="8" fill="#F8FAFC"/>
  <rect x="20" y="20" width="560" height="40" rx="4" fill="#E2E8F0"/>
  <rect x="30" y="30" width="120" height="20" rx="4" fill="#4F46E5"/>
  <rect x="430" y="30" width="40" height="20" rx="4" fill="#94A3B8"/>
  <rect x="480" y="30" width="40" height="20" rx="4" fill="#94A3B8"/>
  <rect x="530" y="30" width="40" height="20" rx="4" fill="#94A3B8"/>
  
  <rect x="20" y="80" width="280" height="140" rx="4" fill="#EEF2FF"/>
  <rect x="30" y="90" width="260" height="20" rx="4" fill="#4F46E5"/>
  <rect x="30" y="120" width="260" height="80" rx="4" fill="#FFFFFF"/>
  
  <rect x="310" y="80" width="270" height="140" rx="4" fill="#EEF2FF"/>
  <rect x="320" y="90" width="250" height="20" rx="4" fill="#4F46E5"/>
  <rect x="320" y="120" width="250" height="80" rx="4" fill="#FFFFFF"/>
  
  <rect x="20" y="240" width="560" height="140" rx="4" fill="#EEF2FF"/>
  <rect x="30" y="250" width="540" height="20" rx="4" fill="#4F46E5"/>
  
  <rect x="30" y="280" width="170" height="90" rx="4" fill="#FFFFFF"/>
  <rect x="210" y="280" width="170" height="90" rx="4" fill="#FFFFFF"/>
  <rect x="390" y="280" width="170" height="90" rx="4" fill="#FFFFFF"/>
  
  <rect x="40" y="290" width="150" height="10" rx="2" fill="#CBD5E1"/>
  <rect x="40" y="310" width="150" height="10" rx="2" fill="#CBD5E1"/>
  <rect x="40" y="330" width="150" height="10" rx="2" fill="#CBD5E1"/>
  <rect x="40" y="350" width="90" height="10" rx="2" fill="#4F46E5"/>
  
  <rect x="220" y="290" width="150" height="10" rx="2" fill="#CBD5E1"/>
  <rect x="220" y="310" width="150" height="10" rx="2" fill="#CBD5E1"/>
  <rect x="220" y="330" width="150" height="10" rx="2" fill="#CBD5E1"/>
  <rect x="220" y="350" width="90" height="10" rx="2" fill="#4F46E5"/>
  
  <rect x="400" y="290" width="150" height="10" rx="2" fill="#CBD5E1"/>
  <rect x="400" y="310" width="150" height="10" rx="2" fill="#CBD5E1"/>
  <rect x="400" y="330" width="150" height="10" rx="2" fill="#CBD5E1"/>
  <rect x="400" y="350" width="90" height="10" rx="2" fill="#4F46E5"/>
</svg>
